<svg width="36" height="36" viewBox="0 0 36 36" fill="none" xmlns="http://www.w3.org/2000/svg">
<rect width="36" height="36" rx="4" fill="#09090F"/>
<path d="M13.7929 25.2779C13.0836 25.2779 12.5796 24.9046 12.2809 24.1579C12.0009 23.4113 11.8609 22.2166 11.8609 20.5739C11.8609 18.1473 12.2063 15.8419 12.8969 13.6579C13.0649 13.1166 13.3356 12.7246 13.7089 12.4819C14.1009 12.2206 14.6423 12.0899 15.3329 12.0899C15.7063 12.0899 15.9676 12.1366 16.1169 12.2299C16.2663 12.3233 16.3409 12.5006 16.3409 12.7619C16.3409 13.0606 16.2009 13.7326 15.9209 14.7779C15.7343 15.5246 15.5849 16.1779 15.4729 16.7379C15.3609 17.2979 15.2676 17.9886 15.1929 18.8099C15.8089 17.2046 16.4996 15.8979 17.2649 14.8899C18.0303 13.8819 18.7769 13.1633 19.5049 12.7339C20.2516 12.3046 20.9329 12.0899 21.5489 12.0899C22.1463 12.0899 22.5943 12.2486 22.8929 12.5659C23.2103 12.8646 23.3689 13.3126 23.3689 13.9099C23.3689 14.3953 23.2663 15.3099 23.0609 16.6539C22.8743 17.7926 22.7249 18.8753 22.6129 19.9019C22.5009 20.9099 22.4449 22.0393 22.4449 23.2899C22.4449 23.9993 22.2956 24.5126 21.9969 24.8299C21.7169 25.1286 21.2503 25.2779 20.5969 25.2779C19.9809 25.2779 19.5329 25.1193 19.2529 24.8019C18.9729 24.4846 18.8329 24.0086 18.8329 23.3739C18.8329 22.6273 18.9636 21.3953 19.2249 19.6779C19.4489 18.1846 19.5609 17.2326 19.5609 16.8219C19.5609 16.5233 19.4583 16.3739 19.2529 16.3739C19.0103 16.3739 18.6649 16.6913 18.2169 17.3259C17.7876 17.9419 17.3396 18.7633 16.8729 19.7899C16.4249 20.8166 16.0609 21.8993 15.7809 23.0379C15.5756 23.9153 15.3329 24.5126 15.0529 24.8299C14.7916 25.1286 14.3716 25.2779 13.7929 25.2779Z" fill="white"/>
</svg>
