<svg width="36" height="36" viewBox="0 0 36 36" fill="none" xmlns="http://www.w3.org/2000/svg">
<rect width="36" height="36" rx="4" fill="#3E59E8"/>
<path d="M14.5508 25.14C13.8414 25.14 13.3374 24.7667 13.0388 24.02C12.7588 23.2733 12.6188 22.0787 12.6188 20.436C12.6188 18.0093 12.9641 15.704 13.6548 13.52C13.8228 12.9787 14.0934 12.5867 14.4668 12.344C14.8588 12.0827 15.4001 11.952 16.0908 11.952C16.4641 11.952 16.7254 11.9987 16.8748 12.092C17.0241 12.1853 17.0988 12.3627 17.0988 12.624C17.0988 12.9227 16.9588 13.5947 16.6788 14.64C16.4921 15.3867 16.3428 16.04 16.2308 16.6C16.1188 17.16 16.0254 17.8507 15.9508 18.672C16.5668 17.0667 17.2574 15.76 18.0228 14.752C18.7881 13.744 19.5348 13.0253 20.2628 12.596C21.0094 12.1667 21.6908 11.952 22.3068 11.952C22.9041 11.952 23.3521 12.1107 23.6508 12.428C23.9681 12.7267 24.1268 13.1747 24.1268 13.772C24.1268 14.2573 24.0241 15.172 23.8188 16.516C23.6321 17.6547 23.4828 18.7373 23.3708 19.764C23.2588 20.772 23.2028 21.9013 23.2028 23.152C23.2028 23.8613 23.0534 24.3747 22.7548 24.692C22.4748 24.9907 22.0081 25.14 21.3548 25.14C20.7388 25.14 20.2908 24.9813 20.0108 24.664C19.7308 24.3467 19.5908 23.8707 19.5908 23.236C19.5908 22.4893 19.7214 21.2573 19.9828 19.54C20.2068 18.0467 20.3188 17.0947 20.3188 16.684C20.3188 16.3853 20.2161 16.236 20.0108 16.236C19.7681 16.236 19.4228 16.5533 18.9748 17.188C18.5454 17.804 18.0974 18.6253 17.6308 19.652C17.1828 20.6787 16.8188 21.7613 16.5388 22.9C16.3334 23.7773 16.0908 24.3747 15.8108 24.692C15.5494 24.9907 15.1294 25.14 14.5508 25.14Z" fill="white"/>
</svg>
